# xmcd
#
# Track frame offsets: 
#        150
#        16142
#        36745
#        58665
#        85047
#        111755
#        131862
#        162490
#
# Disc length: 3009 seconds
#
# Revision: 2
# Processed by: cddbd v1.5.2PL0 Copyright (c) Steve Scherf et al.
# Submitted via: ExactAudioCopy v0.95b4
#
DISCID=6a0bbf08
DTITLE=Miles Davis - The Columbia Years 1955-1985 [CD4]
DYEAR=1988
DGENRE=Jazz
TTITLE0=Sivad
TTITLE1=What It Is
TTITLE2=Ms. Morrisine
TTITLE3=Shout
TTITLE4=Honky Tonk
TTITLE5=Star on Cicely
TTITLE6=Thinkin' One Thing And Doin' Another
TTITLE7=Miles Runs the Voodoo Down
EXTD=
EXTT0=
EXTT1=
EXTT2=
EXTT3=
EXTT4=
EXTT5=
EXTT6=
EXTT7=
PLAYORDER=
